<?xml version="1.0" encoding="UTF-8"?>
<!DOCTYPE svg PUBLIC "-//W3C//DTD SVG 1.1//EN" "http://www.w3.org/Graphics/SVG/1.1/DTD/svg11.dtd">
<svg xmlns="http://www.w3.org/2000/svg" version="1.1" width="128px" height="128px" style="shape-rendering:geometricPrecision; text-rendering:geometricPrecision; image-rendering:optimizeQuality; fill-rule:evenodd; clip-rule:evenodd" xmlns:xlink="http://www.w3.org/1999/xlink">
<g><path style="opacity:1" fill="#c17c50" d="M 40.5,-0.5 C 43.8333,-0.5 47.1667,-0.5 50.5,-0.5C 64.3258,6.5789 77.9924,13.9122 91.5,21.5C 88.8127,21.3359 86.146,21.5026 83.5,22C 71.7906,27.4034 60.1239,32.9034 48.5,38.5C 41.9888,45.2026 39.8221,53.2026 42,62.5C 44.4622,61.3502 46.7955,60.0169 49,58.5C 49.1862,55.9644 49.6862,53.631 50.5,51.5C 50.2011,53.604 50.5344,55.604 51.5,57.5C 60.5311,52.9844 69.5311,48.4844 78.5,44C 82.0213,43.3092 85.3546,43.8092 88.5,45.5C 88.8417,46.3382 89.5084,46.6716 90.5,46.5C 93.3135,48.0697 96.3135,49.4031 99.5,50.5C 106.478,53.6548 113.478,56.8215 120.5,60C 123.885,62.529 126.218,65.6956 127.5,69.5C 127.5,80.8333 127.5,92.1667 127.5,103.5C 112.942,111.946 97.9421,119.613 82.5,126.5C 83.1217,125.373 83.955,124.373 85,123.5C 85.6667,113.5 85.6667,103.5 85,93.5C 83.9425,89.7166 82.1092,86.3832 79.5,83.5C 67.4703,77.1531 55.137,71.3198 42.5,66C 39.366,65.2099 36.366,65.5432 33.5,67C 30.8792,69.1141 28.8792,71.6141 27.5,74.5C 19.0518,69.7743 10.3851,65.2743 1.5,61C 0.934056,60.0053 0.267389,59.172 -0.5,58.5C -0.5,47.1667 -0.5,35.8333 -0.5,24.5C 1.21311,21.2745 3.54644,18.4412 6.5,16C 18.047,10.7253 29.3804,5.22525 40.5,-0.5 Z"/></g>
<g><path style="opacity:1" fill="#9c643e" d="M 91.5,21.5 C 95.5173,22.6856 98.0173,25.3523 99,29.5C 99.4996,36.4921 99.6663,43.4921 99.5,50.5C 96.3135,49.4031 93.3135,48.0697 90.5,46.5C 90.8205,41.3054 90.4872,36.3054 89.5,31.5C 88.0536,30.3871 86.3869,30.2204 84.5,31C 74.5,35.6667 64.5,40.3333 54.5,45C 52.0771,46.5707 50.7438,48.7374 50.5,51.5C 49.6862,53.631 49.1862,55.9644 49,58.5C 46.7955,60.0169 44.4622,61.3502 42,62.5C 39.8221,53.2026 41.9888,45.2026 48.5,38.5C 60.1239,32.9034 71.7906,27.4034 83.5,22C 86.146,21.5026 88.8127,21.3359 91.5,21.5 Z"/></g>
<g><path style="opacity:1" fill="#c88e63" d="M 8.5,28.5 C 17.6535,31.5572 26.6535,35.2238 35.5,39.5C 36.4287,40.6888 36.762,42.0222 36.5,43.5C 27.5415,40.8586 18.8748,37.3586 10.5,33C 8.96317,31.8904 8.2965,30.3904 8.5,28.5 Z"/></g>
<g><path style="opacity:1" fill="#eb941a" d="M 89.5,31.5 C 89.8195,36.3633 89.4861,41.03 88.5,45.5C 85.3546,43.8092 82.0213,43.3092 78.5,44C 69.5311,48.4844 60.5311,52.9844 51.5,57.5C 50.5344,55.604 50.2011,53.604 50.5,51.5C 50.7438,48.7374 52.0771,46.5707 54.5,45C 64.5,40.3333 74.5,35.6667 84.5,31C 86.3869,30.2204 88.0536,30.3871 89.5,31.5 Z"/></g>
<g><path style="opacity:1" fill="#c17d2c" d="M 89.5,31.5 C 90.4872,36.3054 90.8205,41.3054 90.5,46.5C 89.5084,46.6716 88.8417,46.3382 88.5,45.5C 89.4861,41.03 89.8195,36.3633 89.5,31.5 Z"/></g>
<g><path style="opacity:1" fill="#9d653e" d="M 82.5,126.5 C 82.5,126.833 82.5,127.167 82.5,127.5C 79.8333,127.5 77.1667,127.5 74.5,127.5C 68.5993,123.718 62.266,120.718 55.5,118.5C 54.5773,114.936 54.244,111.269 54.5,107.5C 61.1451,110.488 67.8117,113.488 74.5,116.5C 75.086,116.291 75.586,115.957 76,115.5C 76.499,111.179 76.6657,106.846 76.5,102.5C 76.665,99.1501 76.4983,95.8168 76,92.5C 75.1667,91.6667 74.3333,90.8333 73.5,90C 62.8333,85 52.1667,80 41.5,75C 39.9343,74.235 38.6009,74.4017 37.5,75.5C 36.1667,83.1667 36.1667,90.8333 37.5,98.5C 39.7886,100.387 42.4553,101.721 45.5,102.5C 45.5,106.167 45.5,109.833 45.5,113.5C 40.9796,111.074 36.3129,108.907 31.5,107C 29.9512,105.786 28.7845,104.286 28,102.5C 27.5002,93.1726 27.3335,83.8393 27.5,74.5C 28.8792,71.6141 30.8792,69.1141 33.5,67C 36.366,65.5432 39.366,65.2099 42.5,66C 55.137,71.3198 67.4703,77.1531 79.5,83.5C 82.1092,86.3832 83.9425,89.7166 85,93.5C 85.6667,103.5 85.6667,113.5 85,123.5C 83.955,124.373 83.1217,125.373 82.5,126.5 Z"/></g>
<g><path style="opacity:1" fill="#c88e63" d="M 115.5,68.5 C 118.389,68.999 119.056,70.499 117.5,73C 109.167,76.8333 100.833,80.6667 92.5,84.5C 90.4038,83.3803 90.0705,81.8803 91.5,80C 99.7128,76.3918 107.713,72.5585 115.5,68.5 Z"/></g>
<g><path style="opacity:1" fill="#eb951a" d="M 76.5,102.5 C 70.6316,100.318 64.7982,97.9846 59,95.5C 57.1084,95.7769 55.7751,96.7769 55,98.5C 54.502,101.482 54.3354,104.482 54.5,107.5C 54.244,111.269 54.5773,114.936 55.5,118.5C 53.6097,123.709 50.4431,124.709 46,121.5C 45.5026,118.854 45.3359,116.187 45.5,113.5C 45.5,109.833 45.5,106.167 45.5,102.5C 45.6657,98.1539 45.499,93.8206 45,89.5C 43.0065,88.086 40.8398,87.086 38.5,86.5C 37.5773,82.9359 37.244,79.2693 37.5,75.5C 38.6009,74.4017 39.9343,74.235 41.5,75C 52.1667,80 62.8333,85 73.5,90C 74.3333,90.8333 75.1667,91.6667 76,92.5C 76.4983,95.8168 76.665,99.1501 76.5,102.5 Z"/></g>
<g><path style="opacity:1" fill="#c6894a" d="M 37.5,75.5 C 37.244,79.2693 37.5773,82.9359 38.5,86.5C 37.5166,90.2984 37.1832,94.2984 37.5,98.5C 36.1667,90.8333 36.1667,83.1667 37.5,75.5 Z"/></g>
<g><path style="opacity:1" fill="#f1b96e" d="M 38.5,86.5 C 40.8398,87.086 43.0065,88.086 45,89.5C 45.499,93.8206 45.6657,98.1539 45.5,102.5C 42.4553,101.721 39.7886,100.387 37.5,98.5C 37.1832,94.2984 37.5166,90.2984 38.5,86.5 Z"/></g>
<g><path style="opacity:1" fill="#f0b86e" d="M 76.5,102.5 C 76.6657,106.846 76.499,111.179 76,115.5C 75.586,115.957 75.086,116.291 74.5,116.5C 67.8117,113.488 61.1451,110.488 54.5,107.5C 54.3354,104.482 54.502,101.482 55,98.5C 55.7751,96.7769 57.1084,95.7769 59,95.5C 64.7982,97.9846 70.6316,100.318 76.5,102.5 Z"/></g>
</svg>
