<?xml version="1.0" encoding="UTF-8"?>
<svg version="1.1" xmlns="http://www.w3.org/2000/svg" width="512" height="512">
<path d="M0 0 C1.40185547 1.15628906 1.40185547 1.15628906 2.83203125 2.3359375 C23.93826848 20.57881108 36.31062436 46.79687231 38.65820312 74.47167969 C40.6745684 104.24497194 31.2545185 131.9917073 11.91796875 154.58984375 C9.48048291 157.55066232 9.48048291 157.55066232 8 161 C8.75826067 163.85658179 8.75826067 163.85658179 10.1875 166.875 C19.24095166 189.28600329 18.53316193 214.46471162 9.44140625 236.7734375 C5.1078251 246.47408256 0.10530152 255.07871862 -7 263 C-7.81210937 263.90621094 -8.62421875 264.81242187 -9.4609375 265.74609375 C-25.42271252 282.6206389 -47.97423296 293.12136465 -71.27252591 294.09496546 C-73.80164681 294.13385493 -76.32911524 294.1429083 -78.85853577 294.14044189 C-79.82258959 294.14341302 -80.78664341 294.14638414 -81.77991098 294.1494453 C-84.99529138 294.15808451 -88.21063433 294.15963649 -91.42602539 294.16113281 C-93.73781411 294.1657644 -96.04960208 294.17078952 -98.36138916 294.17617798 C-104.63238347 294.18927187 -110.90336708 294.19574116 -117.17437291 294.20018864 C-121.09694197 294.20312447 -125.01950813 294.20723025 -128.94207573 294.21169281 C-139.82230172 294.22379609 -150.70252451 294.23417978 -161.582757 294.2375679 C-162.27802646 294.23778747 -162.97329593 294.23800703 -163.68963417 294.23823325 C-164.38648015 294.23845153 -165.08332614 294.23866981 -165.80128866 294.2388947 C-167.21314752 294.23933815 -168.62500638 294.23978472 -170.03686523 294.24023438 C-170.73718227 294.2404558 -171.4374993 294.24067723 -172.15903806 294.24090537 C-183.49394642 294.2448492 -194.82879033 294.2622932 -206.16367383 294.2855939 C-217.82686117 294.3093741 -229.49001307 294.32151541 -241.15322489 294.32293582 C-247.69123363 294.32398117 -254.2291514 294.32983133 -260.76713753 294.34775543 C-266.92233637 294.36430239 -273.07737648 294.36635951 -279.23258972 294.35761642 C-281.48226791 294.35684957 -283.73195486 294.36114196 -285.98161125 294.37107468 C-307.11784668 294.45886685 -325.81582376 292.62597602 -343 279 C-344.25103516 278.01386719 -344.25103516 278.01386719 -345.52734375 277.0078125 C-355.79209767 268.37213355 -362.69268637 257.66856951 -367 245 C-367.31839844 244.11570312 -367.63679688 243.23140625 -367.96484375 242.3203125 C-373.31096001 224.92695729 -370.54447177 205.80451245 -362.75 189.6875 C-353.30022329 171.87136047 -337.60913142 158.68631036 -318.28515625 152.73046875 C-313.55482267 151.67865855 -308.79104724 151.14389978 -303.96166992 150.77001953 C-299.34388415 150.36979335 -295.85909726 149.61586039 -292 147 C-288.42044339 142.0259078 -288.74644603 137.53104769 -289 131.6875 C-289.51889769 105.84686882 -280.56201298 82.37327234 -262.64599609 63.63427734 C-244.32455533 45.44327698 -220.02368703 35.67588325 -194.25146484 35.68847656 C-185.50225272 35.88641301 -176.30889144 37.23036952 -168 40 C-167.60361328 38.69482422 -167.60361328 38.69482422 -167.19921875 37.36328125 C-163.96874192 28.30321431 -158.15577508 20.30674983 -152 13 C-151.34515625 12.19949219 -150.6903125 11.39898437 -150.015625 10.57421875 C-133.71361384 -8.55387099 -110.51411119 -19.85241048 -86 -24 C-85.2265625 -24.13148437 -84.453125 -24.26296875 -83.65625 -24.3984375 C-53.85296584 -28.51307001 -22.96613215 -19.15445889 0 0 Z " fill="#83F8FB" transform="translate(378,112)"/>
<path d="M0 0 C1.40185547 1.15628906 1.40185547 1.15628906 2.83203125 2.3359375 C23.93826848 20.57881108 36.31062436 46.79687231 38.65820312 74.47167969 C40.69579494 104.55839939 30.89116508 131.53793595 12.11328125 154.78515625 C10.12669095 156.86722039 8.6449194 157.94322634 6 159 C5.07380859 157.54980469 5.07380859 157.54980469 4.12890625 156.0703125 C-1.01503125 148.12003266 -6.27503219 140.72496781 -13 134 C-13.62132812 133.37867188 -14.24265625 132.75734375 -14.8828125 132.1171875 C-30.19034739 117.83442482 -52.27147279 108.59067769 -73.25390625 109.0078125 C-74.61652914 109.02531872 -75.97915981 109.04222796 -77.34179688 109.05859375 C-79.45717479 109.08956129 -81.57215223 109.12521072 -83.68725586 109.17138672 C-85.75118877 109.21394204 -87.81465275 109.23721151 -89.87890625 109.2578125 C-91.1016626 109.2798877 -92.32441895 109.30196289 -93.58422852 109.32470703 C-98.84469608 108.82464114 -101.99431264 107.02188437 -105.66796875 103.2890625 C-108.26527172 99.92614051 -109.77025693 96.30572308 -111.3125 92.375 C-121.39306997 68.26351594 -139.37688594 52.91100852 -163 43 C-164.66390211 42.32646306 -166.32944193 41.65685459 -168 41 C-167.41310607 36.53960614 -165.61767937 33.07669889 -163.375 29.25 C-163.015271 28.63092773 -162.65554199 28.01185547 -162.28491211 27.37402344 C-159.24463787 22.23707757 -155.87835062 17.54273617 -152 13 C-151.01966797 11.80310547 -151.01966797 11.80310547 -150.01953125 10.58203125 C-133.7307165 -8.55510084 -110.509063 -19.85326459 -86 -24 C-85.2265625 -24.13148437 -84.453125 -24.26296875 -83.65625 -24.3984375 C-53.85296584 -28.51307001 -22.96613215 -19.15445889 0 0 Z " fill="#FEE773" transform="translate(378,112)"/>
<path d="M0 0 C3.46712997 2.50813657 4.77210847 3.98756385 5.71484375 8.17578125 C6.03277236 12.43950876 5.52397157 15.91855647 4.625 20.0625 C4.34589771 21.42829222 4.06724477 22.79417635 3.7890625 24.16015625 C3.52867188 25.42730469 3.26828125 26.69445312 3 28 C1.06821527 38.04528058 1.28117166 47.74077683 4.31640625 57.5 C5.74532935 62.72577589 6.02553303 67.14615183 3.375 71.9375 C-1.32130014 76.01586591 -6.8790724 76.3060077 -12.84350586 76.93603516 C-24.61538308 78.20765499 -32.94512416 79.91879475 -40.875 89.25 C-49.00730118 100.69262613 -51.34456052 114.82334069 -49.6875 128.59765625 C-47.69702054 140.09622957 -42.23494534 150.16230697 -33.10546875 157.55859375 C-15.61858101 169.53013656 4.23753524 170.3040787 24.65405273 170.25537109 C26.59547573 170.25812681 28.5368976 170.26181021 30.47831726 170.26634216 C34.63057928 170.27440099 38.78278763 170.27663624 42.93505669 170.27439499 C49.50371009 170.27154438 56.07225749 170.28597598 62.6408844 170.30337524 C81.30932052 170.35024487 99.9777478 170.37435794 118.64624023 170.38085938 C128.97829811 170.38460927 139.31023437 170.40262392 149.64224011 170.43595374 C156.1701443 170.45615371 162.69773466 170.45854611 169.22565734 170.44767356 C173.28280431 170.44506669 177.33976823 170.45906762 181.39686775 170.47775459 C183.27578693 170.48307592 185.15473982 170.48158081 187.03364563 170.47271919 C189.60139462 170.46158578 192.16790677 170.47504239 194.73558044 170.49447632 C195.47604864 170.48535166 196.21651684 170.476227 196.97942346 170.46682584 C202.49000165 170.54781119 205.54643609 171.99191259 210 175 C212.63396359 178.01485538 213.88616456 181.31808143 214.15625 185.30859375 C213.8083795 190.46577391 212.41746085 194.01296235 209 198 C202.99223251 202.46731429 196.67692706 202.14736973 189.50222778 202.14044189 C188.54073724 202.14341302 187.57924669 202.14638414 186.58862007 202.1494453 C183.3639215 202.15812284 180.1392601 202.15963978 176.91455078 202.16113281 C174.60320456 202.16576182 172.2918591 202.17078659 169.98051453 202.17617798 C163.69694628 202.18929993 157.41338871 202.19574707 151.1298089 202.20018864 C147.20072314 202.20312096 143.27164029 202.20722618 139.342556 202.21169281 C128.44958415 202.22380304 117.55661551 202.23418347 106.66363716 202.2375679 C105.96676233 202.23778747 105.2698875 202.23800703 104.55189525 202.23823325 C103.50415983 202.23856067 103.50415983 202.23856067 102.43525803 202.2388947 C101.01998973 202.23933816 99.60472143 202.23978472 98.18945312 202.24023438 C97.13643282 202.24056652 97.13643282 202.24056652 96.06213938 202.24090537 C84.70764072 202.24484652 73.35320651 202.26227928 61.9987327 202.2855939 C50.32208129 202.30937494 38.64546211 202.32177291 26.96878612 202.32293582 C20.42067237 202.32398141 13.87264943 202.3298364 7.32455826 202.34775543 C1.15708763 202.36430379 -5.01022458 202.36635883 -11.17770958 202.35761642 C-13.43222288 202.35684954 -15.68674494 202.36114229 -17.9412365 202.37107468 C-39.0926983 202.45873701 -57.80240883 200.63661323 -75 187 C-75.83402344 186.34257812 -76.66804688 185.68515625 -77.52734375 185.0078125 C-87.79209767 176.37213355 -94.69268637 165.66856951 -99 153 C-99.31839844 152.11570312 -99.63679688 151.23140625 -99.96484375 150.3203125 C-105.31096001 132.92695729 -102.54447177 113.80451245 -94.75 97.6875 C-85.30022329 79.87136047 -69.60913142 66.68631036 -50.28515625 60.73046875 C-45.55482267 59.67865855 -40.79104724 59.14389978 -35.96166992 58.77001953 C-31.34388415 58.36979335 -27.85909726 57.61586039 -24 55 C-20.42124618 50.02702334 -20.74456855 45.53035379 -21 39.6875 C-21.15602492 32.8217694 -20.86876431 26.32322607 -19.625 19.5625 C-19.43550781 18.5264563 -19.43550781 18.5264563 -19.2421875 17.46948242 C-17.90847378 10.75840172 -15.7197737 4.0555284 -10.25 -0.4375 C-6.68925964 -1.32768509 -3.46693745 -1.05246315 0 0 Z " fill="#6FF3FA" transform="translate(110,204)"/>
<path d="M0 0 C1.40185547 1.15628906 1.40185547 1.15628906 2.83203125 2.3359375 C23.95449446 20.59283577 36.54793081 47.02206608 38.60644531 74.7800293 C39.08498851 82.59704878 38.99237503 90.21367283 38 98 C37.67 98 37.34 98 37 98 C36.67 96.35 36.34 94.7 36 93 C35.29875 93.78375 34.5975 94.5675 33.875 95.375 C30.29622923 98.64257331 27.67977 99.96205635 22.79296875 100.03125 C17.5797298 99.68542984 14.84258265 98.75719192 11 95 C9.58392217 92.54094269 8.3613402 90.19103366 7.1875 87.625 C6.49511254 86.18478803 5.79973598 84.74600973 5.1015625 83.30859375 C4.75254883 82.58655762 4.40353516 81.86452148 4.04394531 81.12060547 C-0.85612439 71.16690916 -6.64784404 62.33736949 -14 54 C-14.75925781 53.09636719 -15.51851563 52.19273437 -16.30078125 51.26171875 C-30.5877748 34.72996025 -49.48992651 23.17626192 -70 16 C-71.06476563 15.62230469 -72.12953125 15.24460938 -73.2265625 14.85546875 C-80.09455804 12.58033872 -86.9305507 11.16520736 -94.08935547 10.21411133 C-98.95722282 9.48767574 -102.14940278 8.05054787 -106 5 C-109.55267453 0.02625566 -109.74569231 -5.09182243 -109 -11 C-107.5 -14.625 -107.5 -14.625 -106 -17 C-106.66 -17.33 -107.32 -17.66 -108 -18 C-70.72730979 -30.8323848 -30.7035177 -25.60767585 0 0 Z " fill="#FEEC8F" transform="translate(378,112)"/>
<path d="M0 0 C16.75625498 12.09853522 27.17311699 26.06098033 35.38183594 44.87353516 C37.51099772 49.44066845 39.15794075 52.0224059 43.38183594 54.87353516 C46.81245352 56.01707435 49.34910077 55.93938886 52.96386719 55.86572266 C54.30305178 55.84816549 55.64224507 55.8312613 56.98144531 55.81494141 C59.06983312 55.78438318 61.15776873 55.74936198 63.24584961 55.70214844 C88.0513771 55.17177199 110.80627764 63.35489558 129.38183594 79.87353516 C130.12820313 80.52580078 130.87457031 81.17806641 131.64355469 81.85009766 C142.85246133 92.29609442 152.97325599 107.87578338 156.38183594 122.87353516 C155.72183594 122.87353516 155.06183594 122.87353516 154.38183594 122.87353516 C154.17558594 123.51291016 153.96933594 124.15228516 153.75683594 124.81103516 C152.38183594 126.87353516 152.38183594 126.87353516 149.56933594 127.93603516 C146.38183594 127.87353516 146.38183594 127.87353516 144.02246094 125.78369141 C141.72282252 123.24932658 139.54075944 120.67321125 137.3894043 118.01513672 C120.07388143 96.84684419 95.03182996 84.13971069 68.08007812 80.22216797 C60.10609342 79.47046146 52.07075299 79.8397507 44.07397461 80.06542969 C41.77161709 80.12597413 39.46989247 80.16136483 37.16699219 80.19384766 C36.47315933 80.22076691 35.77932648 80.24768616 35.06446838 80.27542114 C30.01027945 80.3273018 27.28253701 79.00781136 23.38183594 75.87353516 C19.34125149 71.6673045 17.16745727 67.63011572 15.06933594 62.31103516 C9.99357885 50.16757328 3.12245954 39.74749006 -5.61816406 29.87353516 C-6.23046875 29.17744141 -6.84277344 28.48134766 -7.47363281 27.76416016 C-21.24099266 13.08680424 -39.3287424 4.71650865 -58.34472656 -0.78149414 C-59.24578125 -1.04615479 -60.14683594 -1.31081543 -61.07519531 -1.58349609 C-61.87932861 -1.81012939 -62.68346191 -2.0367627 -63.51196289 -2.27026367 C-65.84790148 -3.21985642 -67.05028897 -4.16454299 -68.61816406 -6.12646484 C-69.05566406 -8.56396484 -69.05566406 -8.56396484 -68.61816406 -11.12646484 C-55.44415023 -28.06448263 -13.24612179 -9.22112341 0 0 Z " fill="#BAFAFE" transform="translate(234.6181640625,164.12646484375)"/>
<path d="M0 0 C4.77506344 4.43398748 6.80940419 9.24078397 7.12670898 15.74853516 C7.14615894 17.74111689 7.14321913 19.73400868 7.12109375 21.7265625 C7.12254898 22.78861908 7.12400421 23.85067566 7.12550354 24.94491577 C7.12385091 27.17880003 7.11236142 29.41269643 7.09155273 31.64648438 C7.06252903 35.05908636 7.07097202 38.47013934 7.08398438 41.8828125 C7.07774821 44.05990335 7.06935824 46.23698933 7.05859375 48.4140625 C7.06152939 49.42981354 7.06446503 50.44556458 7.06748962 51.49209595 C6.98589173 57.63399726 6.47507685 62.38436424 2.08984375 67.08203125 C-4.13868758 71.8450258 -8.5811468 72.17199925 -16.375 71.4375 C-20.85370656 69.27812362 -23.55698188 66.50797061 -26.375 62.4375 C-27.33104916 59.56935253 -27.51704136 57.70788838 -27.55200195 54.72583008 C-27.56483719 53.77086136 -27.57767242 52.81589264 -27.59089661 51.83198547 C-27.59828354 50.80075058 -27.60567047 49.76951569 -27.61328125 48.70703125 C-27.62538887 47.1104493 -27.62538887 47.1104493 -27.63774109 45.48161316 C-27.65157822 43.22628405 -27.66230203 40.97093402 -27.67016602 38.71557617 C-27.68734655 35.28067839 -27.73123341 31.84675119 -27.77539062 28.41210938 C-27.78552068 26.21875706 -27.7940358 24.02539658 -27.80078125 21.83203125 C-27.81828934 20.81091751 -27.83579742 19.78980377 -27.85383606 18.73774719 C-27.83507611 12.51302765 -27.10204378 7.56888705 -23.375 2.4375 C-16.17438759 -3.41299759 -8.39047793 -3.88448052 0 0 Z " fill="#6EF3FA" transform="translate(136.375,440.5625)"/>
<path d="M0 0 C5.86032831 3.94445174 8.79492796 8.42732938 10.5703125 15.1640625 C11.75656373 22.30680924 10.0222879 28.79223299 6.1875 34.875 C0.806209 40.10253983 -4.72725053 42.91689186 -12.23046875 43.03515625 C-18.61294888 42.58475748 -24.24883775 40.86096474 -28.76171875 36.16796875 C-33.12194053 30.64642882 -35.54309608 25.41153843 -35.30859375 18.2109375 C-34.4655059 12.17058655 -32.27357403 6.73412548 -27.75 2.5625 C-19.10928244 -3.9410678 -9.63751375 -4.95872077 0 0 Z " fill="#C1FEFA" transform="translate(216,441)"/>
<path d="M0 0 C5.33995753 3.49188479 9.19733616 8.33113641 11.14453125 14.40234375 C12.10870237 22.89205828 10.69091576 29.35484491 5.39453125 36.15234375 C0.23896987 41.72085058 -4.40546157 42.59485946 -11.79296875 42.90234375 C-19.15030561 42.73051635 -23.20418211 40.987926 -28.375 35.91015625 C-33.52871702 30.17720302 -34.30938583 24.87241078 -34.171875 17.41015625 C-33.4495691 10.54379152 -30.04957802 5.83633947 -24.85546875 1.40234375 C-17.09709199 -3.89605989 -8.39200999 -4.12986831 0 0 Z " fill="#C1FEFA" transform="translate(359.85546875,438.59765625)"/>
<path d="M0 0 C5.11081588 4.57539708 8.50830538 9.1285811 9.2109375 16.08984375 C9.52665461 23.19347879 7.75653866 28.39028543 3.8125 34.25 C-1.71613156 39.65577308 -6.22283734 41.25474062 -14 41.5625 C-21.28309405 41.33660724 -25.44353123 39.57475395 -30.51953125 34.47265625 C-35.01483994 29.38142768 -36.86745687 24.80789725 -37 18 C-36.45648713 11.07926942 -33.88466526 5.91804566 -29 1 C-20.15469574 -5.61009778 -9.24483047 -6.02850511 0 0 Z " fill="#C1FEFA" transform="translate(290,471)"/>
<path d="M0 0 C1.15048828 -0.02449219 2.30097656 -0.04898438 3.48632812 -0.07421875 C10.54931216 -0.09850408 15.20715343 0.53550519 21.1875 4.375 C26.05306249 9.49007852 26.54080453 13.8212712 26.46875 20.6484375 C25.9421282 25.75374325 23.29587353 28.37476047 19.625 31.6875 C13.8866296 35.66021797 7.08800017 34.59802662 0.375 34.625 C-0.89666016 34.645625 -2.16832031 34.66625 -3.47851562 34.6875 C-4.70892578 34.69265625 -5.93933594 34.6978125 -7.20703125 34.703125 C-8.89082886 34.71714355 -8.89082886 34.71714355 -10.60864258 34.73144531 C-14.90522457 34.25342887 -18.28249122 32.80325048 -21.45703125 29.83984375 C-26.06524521 23.8137178 -26.39703328 19.88890963 -25.8125 12.375 C-24.1669242 7.6114911 -21.98682416 5.15788277 -17.8125 2.375 C-12.00113009 -0.38019377 -6.31867049 0.00700906 0 0 Z " fill="#FFEC8F" transform="translate(477.8125,177.625)"/>
<path d="M0 0 C4.63599464 2.86324398 8.19044847 6.55823856 11.98828125 10.4375 C12.75527344 11.20126953 13.52226562 11.96503906 14.3125 12.75195312 C19.51832666 18.00809973 22.51616462 21.24163281 22.61328125 28.875 C22.5182052 34.08516768 21.87888178 37.06421564 18.23828125 41 C14.26612979 44.58462449 11.27174742 46.13920277 5.92578125 46.25 C5.18714844 46.27578125 4.44851562 46.3015625 3.6875 46.328125 C-3.99887427 45.29837151 -8.82169391 39.42356538 -14.01171875 34.1875 C-14.82640625 33.39279297 -15.64109375 32.59808594 -16.48046875 31.77929688 C-17.2590625 31.00005859 -18.03765625 30.22082031 -18.83984375 29.41796875 C-19.5452832 28.71438232 -20.25072266 28.0107959 -20.97753906 27.28588867 C-24.14780401 23.22414939 -25.14068606 19.07218713 -24.63671875 14 C-24.03141212 9.4189294 -22.9238735 6.49501314 -19.76171875 3 C-13.65312008 -1.64253499 -7.30540199 -2.64523749 0 0 Z " fill="#FFEC8F" transform="translate(189.76171875,53)"/>
<path d="M0 0 C5.29390075 2.73822452 8.0889348 6.76680439 9.9375 12.3125 C10.38022342 19.06403219 9.71768652 23.11155027 5.08398438 28.4465332 C2.78727595 30.86627958 0.43843121 33.22056463 -1.9375 35.5625 C-2.74058594 36.3771875 -3.54367187 37.191875 -4.37109375 38.03125 C-5.15355469 38.80984375 -5.93601562 39.5884375 -6.7421875 40.390625 C-7.45101074 41.09606445 -8.15983398 41.80150391 -8.89013672 42.52832031 C-12.88864547 45.81232818 -16.76882553 46.77557678 -21.94140625 46.62890625 C-27.08575736 45.86151686 -30.96009212 43.47144162 -34.5 39.75 C-36.72206528 36.28357817 -37.23803305 33.53983216 -37.3125 29.5 C-37.33828125 28.66855469 -37.3640625 27.83710937 -37.390625 26.98046875 C-36.45092878 19.33984355 -30.90193856 14.697665 -25.6875 9.5625 C-24.93210937 8.79550781 -24.17671875 8.02851562 -23.3984375 7.23828125 C-22.66109375 6.50480469 -21.92375 5.77132812 -21.1640625 5.015625 C-20.49713379 4.35208008 -19.83020508 3.68853516 -19.14306641 3.00488281 C-13.75808069 -1.37539423 -6.53703791 -2.17901264 0 0 Z " fill="#FFEC8F" transform="translate(442.0625,52.6875)"/>
<path d="M0 0 C4.28964676 2.87797957 7.12746265 6.29825353 8.33496094 11.40527344 C9.05350755 15.69593259 9.00298675 19.95523911 9.02734375 24.296875 C9.04796875 25.20050781 9.06859375 26.10414062 9.08984375 27.03515625 C9.1295746 33.93839142 8.49251494 40.64056932 4.05859375 46.203125 C3.47078125 46.6465625 2.88296875 47.09 2.27734375 47.546875 C1.68953125 48.0109375 1.10171875 48.475 0.49609375 48.953125 C-3.7737703 51.67031121 -8.34654033 51.4985221 -13.22265625 51.046875 C-18.89741738 49.08253461 -22.53665956 45.41886838 -25.22265625 40.046875 C-25.48117191 35.85535554 -25.49373894 31.66198935 -25.51782227 27.46313477 C-25.52930535 26.06947649 -25.5496991 24.67586093 -25.5793457 23.2824707 C-25.8865218 8.84519433 -25.8865218 8.84519433 -21.22265625 3.046875 C-15.26435029 -1.79424859 -7.22625008 -3.09877859 0 0 Z " fill="#FFEC8F" transform="translate(317.22265625,0.953125)"/>
<path d="M0 0 C5.39365564 2.99647535 8.50817922 6.92913471 10.375 12.875 C11.13308741 21.73404479 11.78746524 30.41457494 6.375 37.875 C2.51970134 42.06075284 -2.02847673 43.58427152 -7.625 43.875 C-13.64409392 42.93695939 -17.76610155 40.66938899 -21.625 35.875 C-24.36532538 31.26451426 -23.99279989 26.79337934 -24 21.5625 C-24.02449219 20.63759766 -24.04898438 19.71269531 -24.07421875 18.75976562 C-24.1006012 12.57308149 -23.28501822 8.90670073 -19.625 3.875 C-13.23772431 -1.07839748 -7.84277803 -2.4339656 0 0 Z " fill="#6EF3FA" transform="translate(60.625,439.125)"/>
<path d="M0 0 C0.66 0.33 1.32 0.66 2 1 C-3.28 6.28 -8.56 11.56 -14 17 C-14.66 16.67 -15.32 16.34 -16 16 C-5.62642369 4.29384966 -5.62642369 4.29384966 0 0 Z " fill="#E5ED91" transform="translate(241,110)"/>
</svg>
